<?xml version="1.0" standalone="no"?>
<!DOCTYPE svg PUBLIC "-//W3C//DTD SVG 20010904//EN"
 "http://www.w3.org/TR/2001/REC-SVG-20010904/DTD/svg10.dtd">
<svg version="1.0" xmlns="http://www.w3.org/2000/svg"
 width="512.000000pt" height="512.000000pt" viewBox="0 0 512.000000 512.000000"
 preserveAspectRatio="xMidYMid meet">
<metadata>
Created by potrace 1.11, written by Peter Selinger 2001-2013
</metadata>
<g transform="translate(0.000000,512.000000) scale(0.100000,-0.100000)"
fill="#000000" stroke="none">
<path d="M4085 3750 c-4 -6 -11 -8 -16 -5 -5 4 -6 -2 -2 -12 6 -16 5 -17 -12
-3 -10 8 -16 10 -12 4 4 -8 -1 -12 -16 -12 -12 0 -36 -2 -54 -4 -19 -3 -34 -1
-37 6 -2 6 -5 4 -5 -5 -1 -9 -8 -20 -17 -23 -8 -3 -13 -2 -10 2 3 5 -1 9 -9 9
-8 0 -11 -5 -8 -10 4 -6 0 -8 -8 -5 -8 3 -23 0 -34 -8 -15 -11 -20 -11 -27 -1
-5 8 -8 7 -8 -5 0 -10 -5 -18 -11 -18 -5 0 -7 6 -3 13 4 6 -2 4 -14 -7 -19
-16 -24 -17 -39 -5 -10 7 -15 10 -11 5 8 -10 -15 -36 -31 -36 -6 0 -11 -6 -11
-12 0 -9 -4 -8 -10 2 -8 13 -10 13 -10 -1 0 -9 -7 -20 -16 -23 -8 -3 -13 -2
-10 3 4 5 -3 7 -14 4 -11 -3 -20 -12 -20 -20 0 -12 -3 -13 -14 -4 -12 10 -13
9 -9 -7 4 -16 0 -19 -21 -17 -17 2 -24 -1 -19 -8 4 -7 0 -8 -11 -4 -9 4 -15 3
-12 -1 5 -8 -18 -44 -28 -43 -27 3 -36 -2 -36 -20 0 -18 -2 -20 -16 -9 -8 8
-14 9 -12 3 2 -6 -7 -20 -20 -31 -13 -11 -24 -24 -25 -29 -1 -4 -5 -7 -9 -6
-4 2 -12 -7 -18 -18 -7 -13 -17 -18 -27 -15 -13 5 -14 4 -3 -9 12 -15 4 -20
-22 -16 -5 0 -7 -2 -7 -6 5 -29 -3 -42 -22 -38 -17 4 -19 2 -9 -10 12 -14 5
-20 -21 -17 -3 1 -6 -5 -6 -13 0 -8 4 -12 8 -9 4 2 11 0 14 -6 4 -6 3 -10 -2
-9 -17 3 -33 -1 -30 -9 3 -12 -40 -62 -47 -54 -4 3 -4 -2 0 -12 5 -13 0 -24
-17 -37 -13 -10 -18 -19 -11 -19 6 0 12 -4 12 -10 0 -5 -7 -7 -15 -3 -9 3 -15
2 -14 -3 5 -18 -13 -74 -22 -68 -5 3 -10 -1 -10 -8 -1 -7 -2 -17 -4 -23 -1 -5
-3 -16 -3 -23 -1 -8 -7 -10 -14 -6 -9 5 -9 2 1 -9 8 -11 9 -17 3 -17 -7 0 -9
-7 -5 -17 4 -10 2 -14 -4 -10 -7 5 -10 -6 -7 -29 3 -31 1 -34 -12 -23 -12 10
-13 9 -8 -6 5 -11 4 -16 -3 -12 -5 3 -10 0 -10 -8 0 -11 4 -12 13 -4 8 7 14 6
20 -2 4 -7 3 -10 -2 -7 -14 9 -31 -15 -29 -40 1 -12 -2 -22 -7 -22 -5 0 -4 -9
2 -20 6 -11 7 -20 3 -20 -5 0 -8 -13 -8 -30 -1 -16 4 -30 9 -30 5 0 1 -7 -10
-16 -10 -8 -13 -13 -6 -9 6 3 12 1 12 -4 0 -6 -5 -11 -10 -11 -7 0 -7 -7 1
-22 9 -17 9 -20 -3 -15 -8 3 -15 -1 -15 -8 0 -7 5 -11 11 -9 8 3 11 -10 10
-36 0 -23 4 -40 10 -40 7 0 7 -3 -1 -8 -14 -9 -13 -84 1 -94 8 -6 8 -8 0 -8
-12 0 -12 -29 1 -49 6 -10 4 -12 -4 -6 -10 6 -11 3 -3 -11 5 -11 8 -27 7 -36
-2 -10 1 -20 6 -24 5 -3 9 -11 9 -17 0 -7 -4 -6 -11 3 -9 13 -10 13 -6 0 2 -8
11 -15 19 -14 8 1 15 -9 16 -22 1 -13 -4 -24 -10 -24 -7 0 -3 -7 8 -15 13 -10
15 -14 5 -15 -11 0 -11 -3 2 -18 9 -9 14 -30 13 -45 -2 -15 1 -28 5 -28 5 -1
14 -2 19 -3 13 -1 13 -21 1 -21 -5 0 -13 -4 -18 -8 -4 -5 -3 -8 2 -7 24 5 37
-1 31 -15 -3 -8 -2 -15 3 -15 5 0 8 -8 7 -17 0 -10 5 -17 12 -15 10 2 14 -10
11 -34 0 -4 3 -10 8 -13 4 -3 15 -15 23 -25 13 -18 13 -19 0 -11 -12 7 -13 6
-3 -7 7 -8 9 -19 5 -23 -4 -5 -1 -5 6 -1 19 11 41 -11 35 -35 -4 -13 -1 -19 7
-17 7 2 15 -3 18 -11 3 -10 0 -11 -9 -5 -12 7 -12 5 0 -9 11 -14 17 -15 28 -5
8 6 13 7 11 2 -3 -12 19 -74 27 -74 3 0 3 5 -1 12 -4 6 4 3 18 -8 18 -13 23
-23 17 -31 -12 -13 -1 -22 24 -18 15 3 22 -7 18 -28 -1 -5 3 -6 7 -3 5 3 22
-6 36 -19 15 -14 32 -25 38 -25 7 0 6 -5 -1 -14 -10 -12 -8 -13 8 -9 13 3 21
1 21 -6 0 -7 5 -9 10 -6 6 3 10 -2 11 -12 0 -11 3 -13 6 -5 4 10 9 9 20 -5 8
-10 11 -11 7 -3 -7 13 -6 13 10 1 13 -11 14 -16 4 -22 -9 -6 -8 -9 7 -10 11
-1 26 0 34 1 9 1 12 -4 7 -15 -3 -9 -2 -13 3 -10 5 3 12 1 16 -5 4 -6 11 -7
17 -4 6 4 13 2 17 -4 7 -12 53 -24 87 -24 14 0 21 -6 20 -16 -1 -11 7 -17 21
-18 13 -1 30 -7 40 -15 9 -8 14 -9 10 -3 -4 7 0 15 9 18 8 3 13 2 11 -2 -3 -4
1 -13 9 -20 11 -10 14 -10 14 0 0 9 3 9 10 -2 5 -8 10 -10 10 -5 0 6 5 3 10
-5 8 -13 10 -13 10 -1 0 11 4 9 15 -5 13 -16 14 -16 9 -1 -5 13 -2 16 10 11 9
-3 13 -11 9 -17 -4 -6 0 -8 10 -4 8 3 21 -1 27 -8 7 -8 17 -12 23 -8 10 6 52
8 60 3 7 -5 357 -4 357 1 0 3 11 5 25 4 14 -2 25 0 25 5 0 13 29 20 35 9 4 -5
3 -8 -2 -7 -4 2 -9 0 -10 -4 -7 -20 -1 -20 22 2 19 18 37 23 79 24 30 1 54 3
54 6 -2 27 3 32 17 20 11 -9 15 -9 15 -1 0 8 5 9 19 1 14 -7 22 -7 26 0 4 6
11 7 17 4 6 -4 9 -3 6 2 -11 17 17 32 66 36 17 2 22 7 18 18 -5 13 -4 13 13 0
15 -12 17 -12 10 -1 -6 11 -3 13 13 9 12 -3 21 -3 20 1 -2 18 3 31 13 31 5 0
7 -6 3 -12 -4 -7 2 -4 14 6 12 11 22 15 22 11 0 -4 9 0 20 10 11 10 20 22 20
28 0 5 9 18 21 27 11 10 21 27 22 38 0 12 5 18 9 16 4 -3 8 0 8 5 0 20 2 26
11 38 8 8 4 10 -13 6 -17 -3 -19 -2 -9 5 11 8 10 14 -5 38 -11 15 -18 29 -16
31 1 2 2 9 2 16 0 8 -3 7 -10 -3 -7 -12 -11 -10 -18 10 -5 14 -8 28 -5 32 2 5
-1 8 -7 8 -7 0 -10 7 -6 15 3 8 1 15 -4 15 -6 0 -10 7 -10 15 0 8 -5 14 -12
13 -7 -2 -13 2 -13 7 -3 27 -18 55 -29 55 -8 0 -12 10 -11 24 2 18 -1 23 -11
19 -13 -5 -20 21 -15 51 1 5 -7 6 -17 4 -15 -4 -18 0 -17 23 1 15 -2 26 -7 23
-4 -3 -8 4 -8 15 0 11 -5 23 -12 27 -7 5 -8 3 -3 -6 5 -9 4 -11 -3 -6 -8 5 -9
13 -2 26 8 15 6 17 -10 13 -15 -4 -19 -2 -14 10 3 9 -4 25 -18 39 -12 12 -22
29 -20 35 2 8 -7 13 -23 13 -14 0 -25 -5 -25 -11 0 -5 -5 -7 -12 -3 -7 5 -9 2
-5 -9 6 -17 -18 -31 -36 -20 -8 4 -8 1 1 -9 10 -13 9 -15 -13 -10 -27 5 -32
-6 -12 -27 10 -10 7 -10 -16 -2 -16 6 -26 7 -23 2 7 -10 -41 -24 -54 -16 -5 3
-7 -3 -5 -13 2 -11 -3 -19 -10 -19 -8 0 -12 4 -9 9 10 15 -9 8 -23 -9 -8 -10
-12 -13 -9 -7 3 6 -1 11 -9 11 -11 0 -12 -5 -3 -20 8 -15 7 -18 -4 -11 -16 11
-108 12 -108 2 0 -4 -23 -6 -51 -3 -38 4 -48 2 -43 -8 6 -9 4 -9 -7 -1 -8 5
-23 10 -34 10 -11 -1 -23 4 -27 9 -5 6 -8 5 -8 -3 0 -9 -6 -10 -17 -4 -10 4
-30 8 -45 7 -23 -1 -25 1 -15 14 10 12 9 14 -4 9 -9 -4 -22 -1 -28 5 -8 8 -11
8 -11 -2 0 -7 -5 -9 -11 -6 -6 4 -8 14 -5 22 3 8 1 11 -5 8 -14 -9 -70 15 -63
26 3 5 0 9 -6 9 -6 0 -9 4 -6 8 3 5 -1 9 -9 9 -8 0 -12 -5 -9 -11 3 -6 -3 -1
-13 10 -10 12 -25 20 -34 19 -9 -2 -16 3 -16 11 0 10 4 11 14 3 9 -8 13 -8 13
-1 0 6 -8 13 -18 16 -9 3 -23 15 -30 27 -9 13 -9 18 -2 14 8 -5 7 -1 -1 13 -7
12 -19 18 -28 14 -9 -3 -13 -1 -8 3 4 5 -1 17 -10 28 -11 12 -12 17 -4 12 15
-9 -11 44 -39 79 -14 18 -14 18 10 6 19 -10 22 -10 13 0 -6 7 -10 18 -9 24 2
6 1 8 -1 4 -3 -5 -8 -8 -12 -8 -11 0 -11 172 1 193 7 14 7 17 -1 13 -6 -4 -11
-2 -11 3 0 10 13 15 32 12 3 0 3 13 -2 29 -5 19 -5 28 1 25 5 -4 9 1 9 10 0 9
4 14 9 10 5 -3 12 -1 16 5 3 5 1 10 -5 10 -7 0 -8 6 -1 19 6 10 7 21 4 25 -3
3 -1 6 6 6 7 0 9 5 5 13 -5 8 -2 8 9 -2 15 -12 17 -11 18 5 1 11 1 22 0 26 0
5 5 7 12 5 6 -1 11 4 10 11 -2 6 6 12 18 12 15 0 19 4 15 16 -5 12 -2 15 9 10
9 -3 14 -2 11 2 -9 15 10 32 37 34 20 2 26 7 22 19 -4 12 1 15 25 14 16 -1 38
5 47 14 10 9 30 16 46 16 15 -1 27 3 27 7 0 5 10 3 23 -3 20 -11 21 -11 8 4
-16 20 -20 19 105 21 57 1 80 -2 77 -10 -6 -15 60 -25 69 -10 6 8 8 7 8 -1 0
-7 10 -13 23 -13 18 0 19 -2 7 -10 -11 -8 -8 -9 13 -6 15 3 27 1 27 -4 0 -4
11 -7 24 -6 14 2 30 -1 38 -6 10 -7 9 -8 -4 -4 -10 3 -20 1 -23 -5 -4 -5 -3
-9 2 -8 4 1 11 0 16 -1 4 -1 12 -4 17 -5 6 -1 12 -4 15 -5 3 -1 11 -3 18 -4 6
0 12 -8 12 -16 0 -10 8 -14 22 -12 12 2 25 -2 29 -9 5 -8 3 -10 -7 -5 -8 4 -6
1 4 -7 22 -18 58 -11 55 12 -2 9 2 15 8 14 7 -1 11 5 10 15 0 10 5 16 13 14
12 -3 12 -1 0 14 -12 15 -12 17 0 9 11 -6 13 -4 8 7 -4 12 0 15 16 11 16 -3
18 -2 8 5 -9 6 -10 12 -3 16 6 4 9 13 6 20 -3 8 3 17 14 20 12 4 19 15 18 29
-1 16 4 21 17 19 19 -3 23 13 6 23 -6 5 -4 12 8 22 10 8 12 11 4 7 -10 -5 -12
-3 -7 5 5 8 12 9 20 2 8 -7 12 -3 14 16 1 15 9 34 17 43 18 20 20 34 3 24 -7
-4 -8 -3 -4 4 4 7 14 12 22 12 8 0 14 3 15 8 3 29 9 47 19 50 5 2 7 9 3 15 -4
6 0 8 11 4 14 -5 15 -3 6 13 -8 15 -8 18 3 14 14 -5 31 27 28 52 -1 7 8 14 20
17 19 5 20 8 9 22 -11 14 -11 16 1 13 8 -2 13 3 12 10 -2 6 5 12 15 12 14 0
15 2 2 10 -13 9 -13 11 0 20 13 8 13 10 -2 10 -9 0 -20 5 -24 12 -5 7 -3 8 6
3 9 -5 11 -4 6 3 -4 7 -15 12 -25 12 -10 0 -26 9 -36 20 -12 13 -25 18 -38 14
-16 -5 -19 -3 -14 10 4 10 1 16 -7 16 -8 0 -17 6 -20 13 -5 9 -7 9 -12 -1 -5
-10 -10 -9 -21 5 -8 10 -11 12 -8 4 5 -9 -1 -8 -19 4 -14 9 -23 22 -19 28 3 5
1 7 -5 3 -6 -3 -13 -2 -16 2 -3 5 -17 8 -31 7 -14 -2 -25 0 -25 3 0 4 -18 7
-40 6 -30 0 -37 2 -30 12 8 8 6 13 -5 18 -11 4 -14 2 -9 -7 5 -9 4 -9 -7 1
-16 14 -33 16 -24 2 10 -15 -2 -12 -20 6 -16 17 -38 20 -168 28 -38 2 -71 7
-75 11 -4 4 0 5 8 3 9 -1 15 1 15 7 0 5 -8 10 -17 10 -9 1 -15 -2 -12 -7 3 -4
0 -8 -6 -8 -6 0 -8 -5 -4 -11 5 -8 1 -8 -14 0 -26 14 -35 14 -27 1 4 -6 -1 -7
-11 -3 -11 4 -13 8 -6 11 26 8 10 19 -25 16 -21 -1 -40 -3 -43 -4 -3 -1 -9 -1
-15 0 -5 1 -23 3 -38 4 -23 2 -27 -1 -23 -16 3 -16 2 -17 -10 -7 -7 6 -12 14
-10 18 3 4 -4 7 -14 7 -10 0 -16 -4 -14 -8 3 -4 -4 -12 -15 -18 -14 -7 -22 -7
-27 2 -4 6 -3 8 4 4 6 -3 13 -2 16 3 4 5 2 12 -3 15 -5 4 -12 2 -16 -4z m65
-20 c0 -5 -2 -10 -4 -10 -3 0 -8 5 -11 10 -3 6 -1 10 4 10 6 0 11 -4 11 -10z
m460 -30 c0 -5 -5 -10 -11 -10 -5 0 -7 5 -4 10 3 6 8 10 11 10 2 0 4 -4 4 -10z
m220 -70 c0 -5 -7 -7 -15 -4 -8 4 -12 10 -9 15 6 11 24 2 24 -11z m215 -218
c-3 -3 -11 0 -18 7 -9 10 -8 11 6 5 10 -3 15 -9 12 -12z m-628 -408 c-3 -3
-12 -4 -19 -1 -8 3 -5 6 6 6 11 1 17 -2 13 -5z m568 -1184 c3 -5 1 -10 -4 -10
-6 0 -11 5 -11 10 0 6 2 10 4 10 3 0 8 -4 11 -10z m-1315 -356 c0 -8 -19 -13
-24 -6 -3 5 1 9 9 9 8 0 15 -2 15 -3z m1120 -47 c0 -2 -8 -11 -18 -20 -15 -14
-19 -15 -19 -2 0 8 4 12 9 9 4 -3 8 0 8 5 0 6 5 11 10 11 6 0 10 -2 10 -3z
m-756 -83 c3 -8 2 -12 -4 -9 -6 3 -10 10 -10 16 0 14 7 11 14 -7z"/>
<path d="M4347 3749 c7 -7 15 -10 18 -7 3 3 -2 9 -12 12 -14 6 -15 5 -6 -5z"/>
<path d="M68 3686 c-10 -7 -14 -16 -10 -20 4 -4 7 -20 7 -34 0 -19 5 -26 16
-24 12 1 15 -6 14 -28 -1 -16 2 -30 6 -30 4 0 5 -10 1 -22 -4 -17 -2 -20 12
-15 12 5 15 3 9 -5 -14 -24 -10 -49 10 -60 20 -10 20 -11 1 -26 -19 -14 -19
-14 1 -10 21 5 25 -9 28 -88 1 -20 6 -31 16 -30 7 1 16 -5 19 -13 3 -10 0 -11
-9 -5 -11 6 -12 5 -3 -7 6 -8 10 -22 9 -32 -3 -14 0 -15 9 -8 10 8 12 4 11
-20 -1 -16 2 -32 6 -35 4 -2 6 -18 4 -34 -2 -18 0 -28 6 -24 5 3 7 10 4 15 -4
5 -2 9 3 9 18 0 21 -39 3 -43 -14 -4 -14 -5 2 -6 9 -1 18 -10 18 -21 3 -39 5
-45 17 -42 16 3 16 -15 0 -21 -10 -4 -10 -8 0 -15 8 -5 13 -18 12 -28 -4 -31
-1 -37 13 -26 9 8 13 1 15 -31 2 -23 4 -50 5 -59 1 -10 7 -18 13 -18 7 0 14
-7 17 -14 4 -11 1 -13 -11 -9 -12 4 -12 1 3 -10 14 -10 21 -26 20 -49 0 -18 4
-36 9 -40 5 -3 10 -25 11 -47 1 -23 5 -44 10 -48 4 -5 6 -3 2 2 -3 6 -2 17 4
25 7 12 9 11 10 -5 0 -11 2 -29 5 -40 2 -11 5 -30 6 -42 2 -15 6 -19 14 -12 8
7 11 3 10 -13 0 -13 -5 -26 -11 -30 -5 -4 -1 -8 10 -8 17 0 17 -2 5 -10 -13
-9 -13 -10 0 -10 13 0 13 -1 0 -10 -13 -8 -12 -10 3 -10 9 0 17 -3 18 -7 0 -5
3 -17 5 -28 3 -11 6 -36 7 -57 1 -20 5 -34 10 -31 4 2 5 9 2 14 -4 5 -1 9 4 9
6 0 12 -8 12 -17 1 -10 2 -25 3 -33 0 -8 -3 -18 -9 -22 -5 -4 0 -8 11 -8 17 0
20 -5 16 -25 -2 -14 0 -25 5 -25 6 0 9 -11 8 -25 -2 -16 2 -25 11 -25 8 0 15
-6 15 -12 1 -7 3 -20 4 -28 1 -8 3 -25 4 -38 0 -13 5 -21 10 -17 5 3 13 0 17
-6 4 -7 3 -9 -3 -6 -21 13 -22 -33 -1 -47 14 -10 16 -15 6 -19 -10 -4 -10 -6
0 -6 6 -1 12 -6 12 -12 0 -5 -6 -7 -12 -3 -8 4 -10 3 -5 -2 5 -5 13 -9 19 -9
10 0 20 -42 22 -97 1 -23 3 -25 21 -15 18 9 18 8 7 -5 -8 -11 -9 -18 -3 -22 6
-4 7 -14 4 -23 -4 -11 -3 -14 6 -9 6 4 11 4 10 -1 -4 -25 2 -44 14 -37 9 5 9
4 0 -6 -7 -8 -9 -19 -4 -29 5 -9 7 -24 6 -33 -2 -11 2 -15 11 -11 8 3 14 0 14
-5 0 -6 -8 -13 -17 -15 -13 -3 -12 -5 5 -6 13 0 22 -7 21 -13 -1 -7 2 -32 6
-56 6 -33 11 -42 23 -37 12 4 12 3 3 -9 -8 -9 -8 -21 -2 -39 5 -14 7 -28 3
-32 -3 -3 1 -3 10 0 13 5 16 2 13 -14 -2 -12 6 -32 19 -48 20 -23 31 -27 80
-28 31 0 56 3 56 8 0 4 6 5 13 0 18 -11 36 -12 43 -2 3 6 11 5 20 -2 11 -9 14
-8 14 2 0 10 2 11 8 2 8 -13 29 -13 49 0 7 5 13 5 13 0 0 -10 201 -10 217 0 6
4 14 3 17 -2 4 -5 18 -6 34 -2 18 5 27 14 27 28 0 12 4 25 8 29 4 5 5 0 1 -11
-5 -16 -4 -18 6 -8 7 6 14 26 17 45 3 28 9 73 12 101 1 4 6 7 12 7 8 0 8 -5
-1 -15 -9 -10 -9 -15 -1 -15 11 0 13 5 15 50 1 16 6 24 15 22 12 -3 12 0 2 12
-7 9 -18 13 -24 9 -6 -3 -7 -1 -3 5 4 6 13 9 21 6 10 -4 13 0 10 15 -2 12 1
21 6 21 6 0 8 4 4 10 -8 13 5 60 17 60 5 0 6 -5 2 -12 -4 -6 -3 -8 4 -5 5 4 9
18 7 32 -1 14 1 28 6 31 4 2 6 11 3 18 -3 8 5 24 18 36 20 19 21 20 3 14 -18
-7 -18 -6 -6 9 7 9 11 26 8 38 -4 16 -3 18 9 8 8 -6 14 -10 15 -8 6 31 6 38
-1 34 -5 -3 -2 7 5 23 8 15 15 42 17 59 1 17 6 30 10 27 4 -3 5 -11 2 -18 -3
-8 0 -17 7 -22 8 -5 10 -3 4 6 -5 9 -4 11 3 6 7 -4 12 -14 12 -22 0 -8 6 -14
13 -14 8 0 7 -3 -3 -9 -8 -6 -19 -7 -25 -4 -5 4 -6 2 -2 -3 5 -5 14 -9 20 -9
6 0 12 -13 12 -30 0 -18 6 -29 13 -27 11 2 16 -13 15 -45 -1 -7 3 -13 7 -13 4
0 6 -13 5 -30 -1 -16 1 -28 5 -25 4 3 10 -2 14 -10 3 -8 2 -15 -3 -15 -4 0 -8
-6 -8 -14 0 -9 7 -12 16 -8 9 3 13 2 9 -3 -4 -4 0 -14 10 -22 15 -13 15 -14 0
-9 -9 2 -19 -1 -21 -8 -4 -9 1 -12 13 -9 15 4 18 1 15 -16 -2 -12 4 -30 13
-39 19 -19 21 -31 8 -51 -7 -11 -5 -13 7 -8 14 5 16 2 11 -20 -6 -21 -4 -24 7
-18 11 7 11 5 -1 -10 -9 -11 -10 -16 -2 -11 12 7 15 0 15 -36 0 -10 4 -18 9
-18 5 0 6 -4 3 -10 -3 -5 -2 -10 3 -10 11 0 30 -41 27 -60 -2 -13 16 -15 120
-14 67 0 128 4 135 9 8 5 11 4 7 -1 -3 -6 19 -10 54 -9 32 0 59 4 59 8 0 5 6
5 13 0 18 -11 36 -12 43 -2 3 5 11 6 17 2 17 -11 60 -11 75 0 8 6 12 5 12 -2
0 -7 5 -9 10 -6 6 3 10 0 10 -7 0 -10 3 -9 9 2 6 8 7 19 3 25 -3 5 1 4 10 -2
22 -19 31 -3 11 19 -10 11 -13 19 -8 18 26 -6 32 2 28 35 -3 32 3 40 28 37 4
-1 6 12 5 28 -1 17 2 30 7 30 4 0 5 5 2 10 -4 6 -1 18 7 27 11 14 11 16 -2 9
-8 -4 -7 -1 3 7 14 11 15 16 5 20 -11 4 -11 6 0 6 7 1 10 6 6 13 -5 8 -2 9 12
4 10 -4 15 -4 12 0 -4 4 -3 16 3 27 8 14 8 18 0 13 -6 -4 -11 -2 -11 3 0 6 8
11 18 12 9 0 12 3 6 5 -13 5 -7 41 10 63 8 11 8 13 -1 7 -8 -4 -13 -2 -13 5 0
6 8 9 18 7 16 -5 18 1 16 43 -1 27 3 49 8 49 5 0 6 -4 3 -10 -3 -5 -2 -10 4
-10 5 0 9 9 8 19 0 11 -6 17 -12 15 -5 -3 -3 0 5 8 9 7 14 20 12 29 -1 9 4 24
13 33 17 16 25 43 27 89 1 30 7 33 28 15 12 -11 12 -10 3 2 -6 8 -9 26 -8 40
2 14 4 33 4 43 1 9 6 17 12 17 5 0 7 -6 3 -12 -4 -7 -4 -10 1 -6 7 7 12 41 17
106 1 7 7 11 14 8 8 -3 16 0 20 6 4 6 3 8 -4 4 -16 -10 -26 14 -12 27 10 9 11
9 5 -2 -5 -9 -4 -12 4 -7 6 4 9 18 7 31 -3 14 0 28 6 31 7 5 8 2 3 -7 -5 -8
-4 -10 0 -6 16 14 14 36 -3 31 -12 -4 -10 -1 3 8 14 9 20 23 18 45 -1 18 3 35
8 39 5 3 7 10 4 15 -3 5 1 6 9 3 10 -4 15 1 15 13 1 49 7 85 16 91 6 4 10 14
10 22 -1 19 15 41 25 35 5 -3 12 0 16 6 4 8 3 9 -4 5 -11 -7 -10 19 3 84 2 8
4 17 4 19 1 2 7 -1 14 -7 10 -8 13 -6 13 8 0 10 -4 16 -8 14 -4 -3 -8 0 -8 5
0 6 5 11 10 11 6 0 9 3 9 8 -1 4 0 9 1 12 9 25 6 38 -8 34 -10 -3 -7 1 6 7 12
7 22 21 23 33 0 12 3 30 5 41 3 11 6 25 6 32 1 6 7 9 14 6 8 -3 11 4 10 21 -2
15 1 29 6 32 6 4 5 10 -3 15 -11 7 -10 9 3 9 9 0 20 5 24 12 4 7 3 8 -4 4 -7
-4 -12 -2 -12 3 0 6 4 11 10 11 5 0 6 7 3 17 -4 11 -3 14 5 9 9 -5 9 0 2 20
-10 25 -9 26 7 13 11 -9 14 -10 9 -1 -4 6 -4 12 1 12 7 0 13 36 17 101 0 17 5
25 14 22 9 -4 10 -9 2 -18 -8 -10 -8 -15 1 -21 7 -4 9 -3 5 4 -3 6 -2 13 4 17
7 4 6 13 -1 27 -7 12 -7 18 -1 14 14 -9 21 15 10 36 -7 14 -5 16 8 11 12 -4
15 -3 10 5 -4 7 -1 26 8 42 8 17 11 28 7 26 -4 -3 -7 7 -7 21 0 23 1 23 13 7
12 -16 13 -16 13 -1 0 9 -1 18 -2 20 -1 1 4 12 10 24 9 16 9 23 -1 26 -9 4 -9
6 1 6 6 1 12 10 12 21 0 11 5 20 10 20 6 0 10 5 10 11 0 5 -6 7 -12 3 -9 -6
-9 -3 0 9 8 9 11 21 8 26 -4 5 -1 13 5 17 8 5 9 3 4 -6 -6 -9 -4 -11 4 -6 7 5
10 14 7 22 -3 8 -1 14 4 14 6 0 9 6 8 12 -4 17 -31 37 -41 31 -15 -9 -98 -9
-104 0 -2 4 -11 3 -18 -3 -9 -8 -15 -8 -20 0 -3 6 -11 7 -17 4 -15 -10 -99
-11 -105 -1 -2 4 -11 3 -18 -3 -9 -8 -15 -8 -20 0 -3 6 -11 7 -17 4 -15 -10
-99 -11 -105 -1 -2 4 -11 3 -18 -3 -9 -8 -15 -8 -20 0 -3 6 -11 7 -17 4 -15
-10 -99 -11 -104 -2 -3 5 -10 5 -16 2 -15 -10 -99 -11 -105 -1 -2 4 -12 2 -20
-5 -9 -7 -19 -12 -22 -10 -8 5 -18 -30 -16 -60 1 -15 -2 -25 -7 -22 -4 3 -5
11 -2 17 5 8 4 9 -4 2 -6 -5 -12 -23 -14 -40 -1 -16 -10 -36 -18 -43 -8 -8 -9
-11 -2 -7 6 3 12 1 12 -4 0 -6 -5 -11 -11 -11 -5 0 -7 -4 -4 -10 3 -5 3 -10
-2 -10 -4 0 -8 -17 -7 -37 1 -49 -4 -57 -24 -41 -12 10 -14 10 -8 1 4 -8 2
-13 -6 -13 -8 0 -9 -3 -3 -8 14 -10 17 -32 4 -32 -8 0 -7 -6 2 -17 10 -11 10
-14 2 -9 -11 6 -15 1 -12 -20 0 -3 -8 -12 -18 -21 -10 -8 -12 -12 -5 -8 6 3
12 1 12 -4 0 -6 -4 -11 -9 -11 -4 0 -7 -11 -6 -24 3 -19 -1 -23 -13 -18 -15 5
-16 4 -2 -13 9 -11 10 -16 3 -11 -9 5 -13 0 -14 -13 -1 -12 -3 -25 -4 -31 -1
-5 -3 -17 -4 -26 0 -8 -5 -12 -11 -9 -5 3 -10 1 -10 -5 0 -6 -5 -8 -12 -4 -7
4 -8 3 -4 -5 4 -6 11 -9 16 -6 12 7 6 -23 -7 -36 -6 -6 -9 -18 -6 -27 4 -10 2
-13 -6 -8 -6 4 -10 4 -9 -1 6 -20 -13 -93 -25 -93 -8 0 -7 -4 3 -11 13 -9 13
-10 -1 -6 -9 3 -23 0 -30 -6 -8 -7 -10 -8 -6 -3 4 5 1 16 -6 25 -10 14 -10 14
4 3 14 -10 18 -10 22 3 4 8 3 14 -1 14 -4 -1 -14 -1 -22 1 -11 1 -9 4 5 10 17
7 17 9 3 9 -18 1 -20 24 -5 48 4 6 2 15 -4 19 -7 4 -9 3 -6 -3 4 -6 -1 -17
-10 -24 -14 -12 -15 -11 -8 10 4 15 4 21 -3 17 -6 -3 -9 2 -7 11 1 10 -2 26
-7 37 -6 11 -6 16 -1 13 5 -4 10 0 10 8 0 8 -4 12 -9 9 -4 -3 -8 0 -8 6 0 6
-5 8 -12 4 -8 -5 -7 0 2 11 9 11 10 16 3 11 -8 -4 -13 -1 -13 9 0 10 5 13 12
9 7 -4 8 -3 4 5 -4 6 -11 9 -16 6 -4 -3 -10 2 -14 10 -3 8 0 15 6 15 7 0 3 6
-8 14 -10 8 -16 18 -11 22 4 4 7 2 7 -4 0 -7 5 -12 12 -12 7 0 6 6 -4 18 -8 9
-20 30 -26 45 -7 17 -17 25 -24 21 -7 -5 -8 -3 -3 5 5 9 10 10 18 2 18 -18 28
-12 15 8 -7 11 -17 19 -22 18 -6 -1 -11 8 -12 21 -1 12 -2 27 -3 32 0 6 -9 10
-18 11 -15 0 -15 2 2 9 11 5 15 9 8 9 -6 1 -10 10 -8 21 3 13 0 18 -7 14 -7
-5 -9 -2 -5 8 3 9 -1 24 -9 35 -9 10 -12 11 -8 3 4 -8 4 -12 -1 -8 -8 8 -16
53 -17 100 0 15 -3 27 -7 26 -20 -2 -35 3 -25 10 8 5 7 16 -2 37 -7 17 -13 26
-14 20 0 -5 -18 -10 -40 -11 -25 0 -37 3 -33 10 3 6 0 5 -8 -1 -15 -15 -33
-18 -25 -5 3 5 -1 9 -9 9 -8 0 -12 -4 -10 -8 6 -9 -60 -3 -76 7 -7 4 -10 3 -6
-2 6 -10 -159 -11 -169 -1 -4 3 -14 3 -23 -1 -9 -4 -35 -7 -59 -7 -37 1 -43
-1 -39 -17 3 -10 0 -21 -5 -25 -6 -3 -8 -1 -4 5 3 6 2 13 -3 16 -10 7 -24 -41
-16 -54 4 -6 2 -10 -4 -10 -11 0 -9 -19 3 -39 6 -9 5 -12 0 -8 -14 8 -31 -23
-30 -54 1 -21 -3 -26 -16 -24 -10 2 -16 0 -13 -5 3 -5 1 -11 -5 -15 -7 -4 -7
-12 0 -25 6 -11 6 -21 1 -24 -5 -4 -8 -17 -6 -31 1 -18 -1 -22 -9 -16 -8 7
-12 5 -14 -7 -1 -9 -4 -26 -6 -37 -2 -11 -5 -24 -5 -28 -1 -5 -7 -5 -13 -1 -8
5 -7 0 2 -11 12 -15 12 -17 1 -10 -11 6 -13 4 -8 -8 3 -10 3 -17 -1 -17 -4 0
-7 -16 -7 -35 1 -20 -3 -39 -8 -42 -6 -3 -7 -1 -3 5 3 6 2 13 -3 16 -10 7 -24
-41 -16 -54 4 -6 2 -10 -4 -10 -11 0 -9 -19 3 -39 6 -9 5 -12 -1 -8 -13 8 -26
-18 -29 -58 -3 -40 -2 -39 -17 -27 -10 8 -13 6 -13 -8 0 -10 5 -16 11 -14 5 3
1 -2 -9 -10 -11 -9 -15 -16 -8 -16 6 0 9 -6 6 -13 -2 -7 -13 -13 -23 -13 -15
0 -17 4 -10 23 5 13 4 25 -2 28 -5 4 -6 12 -2 18 4 7 -1 6 -10 -2 -15 -12 -17
-12 -11 3 3 9 11 16 17 16 6 0 3 6 -7 13 -12 9 -18 27 -19 55 -1 23 -5 42 -10
42 -4 0 -5 5 -1 12 4 7 3 8 -5 4 -9 -6 -9 -11 -1 -21 7 -9 6 -16 -7 -26 -16
-13 -17 -12 -5 3 7 9 9 19 4 22 -5 3 -10 16 -10 28 0 35 -6 52 -21 64 -10 7
-11 13 -3 18 8 4 8 15 0 36 -5 17 -14 27 -19 24 -5 -3 -9 3 -10 13 -3 59 -7
77 -19 81 -9 3 -9 6 1 13 11 7 11 9 1 9 -7 0 -10 5 -6 12 5 7 3 8 -6 3 -10 -6
-11 -1 -6 21 5 23 4 26 -5 14 -8 -12 -9 -8 -5 18 3 19 1 32 -5 32 -6 0 -8 -4
-4 -9 3 -5 2 -12 -3 -15 -4 -2 -8 5 -9 17 -1 45 -11 98 -18 105 -5 4 -5 -2 -1
-13 4 -11 4 -16 -1 -12 -15 16 -30 96 -19 101 7 3 6 5 -2 5 -7 1 -11 5 -8 9 3
5 -31 9 -75 8 -45 -1 -83 2 -86 7 -2 4 -9 4 -15 1 -15 -10 -99 -11 -104 -2 -3
4 -13 5 -22 0 -21 -9 -64 -8 -82 3 -8 5 -11 4 -7 -2 8 -12 -54 -10 -74 3 -7 4
-10 3 -6 -2 6 -10 -159 -11 -169 -1 -4 3 -14 3 -23 -1 -19 -9 -82 -9 -96 0 -6
3 -18 1 -27 -6z m1242 -230 c0 -2 -7 -7 -16 -10 -8 -3 -12 -2 -9 4 6 10 25 14
25 6z m-1116 -134 c3 -5 -1 -9 -9 -9 -8 0 -12 4 -9 9 3 4 7 8 9 8 2 0 6 -4 9
-8z m413 -1287 c0 -8 -4 -12 -9 -9 -5 3 -6 10 -3 15 9 13 12 11 12 -6z m2038
-24 c3 -5 2 -12 -3 -15 -5 -3 -9 1 -9 9 0 17 3 19 12 6z m-60 -180 c3 -5 2
-12 -3 -15 -5 -3 -9 1 -9 9 0 17 3 19 12 6z m-45 -152 c0 -5 -4 -9 -8 -9 -5 0
-9 7 -9 15 0 8 4 12 9 9 4 -3 8 -9 8 -15z m-50 -155 c0 -8 -19 -13 -24 -6 -3
5 1 9 9 9 8 0 15 -2 15 -3z m-1065 -64 c3 -5 1 -10 -4 -10 -6 0 -11 5 -11 10
0 6 2 10 4 10 3 0 8 -4 11 -10z"/>
<path d="M2307 3439 c7 -7 15 -10 18 -7 3 3 -2 9 -12 12 -14 6 -15 5 -6 -5z"/>
<path d="M3200 3209 c0 -5 5 -7 10 -4 6 3 10 8 10 11 0 2 -4 4 -10 4 -5 0 -10
-5 -10 -11z"/>
<path d="M4210 3001 c0 -6 4 -13 10 -16 6 -3 7 1 4 9 -7 18 -14 21 -14 7z"/>
<path d="M4331 2994 c0 -11 3 -14 6 -6 3 7 2 16 -1 19 -3 4 -6 -2 -5 -13z"/>
<path d="M3010 2541 c0 -6 4 -13 10 -16 6 -3 7 1 4 9 -7 18 -14 21 -14 7z"/>
<path d="M3019 2508 c-5 -18 -6 -38 -1 -34 7 8 12 36 6 36 -2 0 -4 -1 -5 -2z"/>
<path d="M2800 2470 c-9 -6 -10 -10 -3 -10 6 0 15 5 18 10 8 12 4 12 -15 0z"/>
<path d="M3040 2206 c0 -2 7 -7 16 -10 8 -3 12 -2 9 4 -6 10 -25 14 -25 6z"/>
<path d="M548 2153 c6 -2 9 -10 6 -15 -4 -7 -2 -8 5 -4 13 9 5 26 -12 25 -9 0
-8 -2 1 -6z"/>
<path d="M1670 1880 c0 -5 5 -10 11 -10 5 0 7 5 4 10 -3 6 -8 10 -11 10 -2 0
-4 -4 -4 -10z"/>
<path d="M1760 1621 c0 -6 4 -13 10 -16 6 -3 7 1 4 9 -7 18 -14 21 -14 7z"/>
<path d="M1816 1432 c-3 -5 1 -9 9 -9 8 0 12 4 9 9 -3 4 -7 8 -9 8 -2 0 -6 -4
-9 -8z"/>
<path d="M1825 1400 c-3 -6 1 -7 9 -4 18 7 21 14 7 14 -6 0 -13 -4 -16 -10z"/>
<path d="M805 1380 c3 -5 8 -10 11 -10 2 0 4 5 4 10 0 6 -5 10 -11 10 -5 0 -7
-4 -4 -10z"/>
</g>
</svg>
